<svg width="375" height="266" viewBox="0 0 375 266" fill="none" xmlns="http://www.w3.org/2000/svg">
<defs>
<filter id="filter0_d_6440_4648" x="-9" y="0" width="394" height="266" filterUnits="userSpaceOnUse" color-interpolation-filters="sRGB">
<feFlood flood-opacity="0" result="BackgroundImageFix"/>
<feColorMatrix in="SourceAlpha" type="matrix" values="0 0 0 0 0 0 0 0 0 0 0 0 0 0 0 0 0 0 127 0" result="hardAlpha"/>
<feOffset dy="1"/>
<feGaussianBlur stdDeviation="12.5"/>
<feColorMatrix type="matrix" values="0 0 0 0 0 0 0 0 0 0 0 0 0 0 0 0 0 0 0.08 0"/>
<feBlend mode="normal" in2="BackgroundImageFix" result="effect1_dropShadow_6440_4648"/>
<feBlend mode="normal" in="SourceGraphic" in2="effect1_dropShadow_6440_4648" result="shape"/>
</filter>
<linearGradient id="paint0_linear_6440_4648" x1="119.5" y1="237.5" x2="311" y2="116.5" gradientUnits="userSpaceOnUse">
<stop stop-color="white"/>
<stop offset="1" stop-color="white" stop-opacity="0"/>
</linearGradient>
<linearGradient id="paint1_linear_6440_4648" x1="326.5" y1="-67" x2="326.5" y2="174" gradientUnits="userSpaceOnUse">
<stop stop-color="white"/>
<stop offset="1" stop-color="white" stop-opacity="0"/>
</linearGradient>
<clipPath id="clip0_6440_4648">
<rect width="32" height="25" fill="white" transform="translate(303 183)"/>
</clipPath>
</defs>
<mask id="mask0_6440_4648" style="mask-type:alpha" maskUnits="userSpaceOnUse" x="16" y="24" width="343" height="216">
<rect x="16" y="24" width="343" height="216" rx="8" fill="#F7F7F7"/>
</mask>
<g mask="url(#mask0_6440_4648)">
<g filter="url(#filter0_d_6440_4648)">
<rect x="16" y="24" width="344" height="216" rx="8" fill="#2A2C36"/>
</g>
<path d="M227.5 161.5C207.204 158.502 183.838 160.679 165.418 163.642C144.515 167.005 122.696 164.38 104.493 153.567C80.4884 139.309 51.2911 136.779 25.1923 146.697L16.5 150L8 247H296L294.425 235.028C293.81 230.357 292.712 225.786 290.764 221.496C283.629 205.785 262.541 166.677 227.5 161.5Z" fill="url(#paint0_linear_6440_4648)" fill-opacity="0.05"/>
<circle cx="326.5" cy="53.5" r="120.5" fill="url(#paint1_linear_6440_4648)" fill-opacity="0.05"/>
</g>
<g clip-path="url(#clip0_6440_4648)">
<path d="M308.817 207.876V206.221C308.817 205.587 308.433 205.173 307.775 205.173C307.445 205.173 307.089 205.283 306.842 205.642C306.65 205.338 306.375 205.173 305.964 205.173C305.689 205.173 305.415 205.256 305.195 205.559V205.228H304.619V207.876H305.195V206.414C305.195 205.945 305.442 205.725 305.826 205.725C306.211 205.725 306.403 205.973 306.403 206.414V207.876H306.979V206.414C306.979 205.945 307.253 205.725 307.61 205.725C307.994 205.725 308.186 205.973 308.186 206.414V207.876H308.817ZM317.351 205.228H316.418V204.428H315.842V205.228H315.321V205.752H315.842V206.966C315.842 207.572 316.089 207.931 316.748 207.931C316.995 207.931 317.269 207.848 317.461 207.738L317.297 207.241C317.132 207.352 316.94 207.379 316.803 207.379C316.528 207.379 316.418 207.214 316.418 206.938V205.752H317.351V205.228ZM322.236 205.173C321.907 205.173 321.687 205.338 321.55 205.559V205.228H320.974V207.876H321.55V206.386C321.55 205.945 321.742 205.697 322.099 205.697C322.208 205.697 322.346 205.725 322.455 205.752L322.62 205.201C322.51 205.173 322.346 205.173 322.236 205.173ZM314.854 205.449C314.58 205.256 314.196 205.173 313.784 205.173C313.126 205.173 312.687 205.504 312.687 206.028C312.687 206.469 313.016 206.717 313.592 206.8L313.866 206.828C314.168 206.883 314.333 206.966 314.333 207.103C314.333 207.297 314.113 207.434 313.729 207.434C313.345 207.434 313.043 207.297 312.851 207.159L312.577 207.6C312.879 207.821 313.29 207.931 313.702 207.931C314.47 207.931 314.909 207.572 314.909 207.076C314.909 206.607 314.553 206.359 314.004 206.276L313.729 206.249C313.482 206.221 313.29 206.166 313.29 206C313.29 205.807 313.482 205.697 313.784 205.697C314.113 205.697 314.443 205.835 314.607 205.918L314.854 205.449ZM330.166 205.173C329.837 205.173 329.617 205.338 329.48 205.559V205.228H328.904V207.876H329.48V206.386C329.48 205.945 329.672 205.697 330.029 205.697C330.139 205.697 330.276 205.725 330.386 205.752L330.55 205.201C330.441 205.173 330.276 205.173 330.166 205.173ZM322.812 206.552C322.812 207.352 323.361 207.931 324.212 207.931C324.596 207.931 324.87 207.848 325.145 207.627L324.87 207.159C324.651 207.324 324.431 207.407 324.184 207.407C323.718 207.407 323.388 207.076 323.388 206.552C323.388 206.056 323.718 205.725 324.184 205.697C324.431 205.697 324.651 205.78 324.87 205.945L325.145 205.476C324.87 205.256 324.596 205.173 324.212 205.173C323.361 205.173 322.812 205.752 322.812 206.552ZM328.136 206.552V205.228H327.559V205.559C327.367 205.311 327.093 205.173 326.736 205.173C325.995 205.173 325.419 205.752 325.419 206.552C325.419 207.352 325.995 207.931 326.736 207.931C327.12 207.931 327.395 207.793 327.559 207.545V207.876H328.136V206.552ZM326.023 206.552C326.023 206.083 326.325 205.697 326.818 205.697C327.285 205.697 327.614 206.056 327.614 206.552C327.614 207.021 327.285 207.407 326.818 207.407C326.325 207.379 326.023 207.021 326.023 206.552ZM319.135 205.173C318.367 205.173 317.818 205.725 317.818 206.552C317.818 207.379 318.367 207.931 319.163 207.931C319.547 207.931 319.931 207.821 320.233 207.572L319.958 207.159C319.739 207.324 319.464 207.434 319.19 207.434C318.833 207.434 318.477 207.269 318.394 206.8H320.342V206.58C320.37 205.725 319.876 205.173 319.135 205.173ZM319.135 205.669C319.492 205.669 319.739 205.89 319.794 206.304H318.422C318.477 205.945 318.723 205.669 319.135 205.669ZM333.432 206.552V204.18H332.855V205.559C332.663 205.311 332.389 205.173 332.032 205.173C331.291 205.173 330.715 205.752 330.715 206.552C330.715 207.352 331.291 207.931 332.032 207.931C332.416 207.931 332.691 207.793 332.855 207.545V207.876H333.432V206.552ZM331.319 206.552C331.319 206.083 331.621 205.697 332.114 205.697C332.581 205.697 332.91 206.056 332.91 206.552C332.91 207.021 332.581 207.407 332.114 207.407C331.621 207.379 331.319 207.021 331.319 206.552ZM312.055 206.552V205.228H311.479V205.559C311.287 205.311 311.013 205.173 310.656 205.173C309.915 205.173 309.339 205.752 309.339 206.552C309.339 207.352 309.915 207.931 310.656 207.931C311.04 207.931 311.315 207.793 311.479 207.545V207.876H312.055V206.552ZM309.915 206.552C309.915 206.083 310.217 205.697 310.711 205.697C311.177 205.697 311.507 206.056 311.507 206.552C311.507 207.021 311.177 207.407 310.711 207.407C310.217 207.379 309.915 207.021 309.915 206.552Z" fill="white"/>
<path d="M323.306 185.124H314.662V200.733H323.306V185.124Z" fill="#FF5F00"/>
<path d="M315.211 192.928C315.211 189.757 316.693 186.944 318.97 185.124C317.297 183.8 315.184 183 312.879 183C307.418 183 303 187.44 303 192.928C303 198.416 307.418 202.857 312.879 202.857C315.184 202.857 317.297 202.057 318.97 200.733C316.693 198.94 315.211 196.1 315.211 192.928Z" fill="#EB001B"/>
<path d="M334.968 192.928C334.968 198.416 330.55 202.857 325.09 202.857C322.785 202.857 320.672 202.057 318.998 200.733C321.303 198.913 322.757 196.1 322.757 192.928C322.757 189.757 321.275 186.944 318.998 185.124C320.672 183.8 322.785 183 325.09 183C330.55 183 334.968 187.468 334.968 192.928Z" fill="#F79E1B"/>
</g>
<mask id="mask1_6440_4648" style="mask-type:alpha" maskUnits="userSpaceOnUse" x="40" y="58" width="32" height="24">
<rect x="40" y="58" width="32" height="24" rx="8" fill="#FFBA49"/>
</mask>
<g mask="url(#mask1_6440_4648)">
<rect x="40" y="58" width="32" height="24" rx="8" fill="#FFBA49"/>
<rect x="34" y="60" width="20" height="7" rx="2.5" stroke="#D29634" stroke-width="0.3"/>
<rect x="34" y="67" width="20" height="7" rx="2.5" stroke="#D29634" stroke-width="0.3"/>
<rect x="34" y="74" width="20" height="7" rx="2.5" stroke="#D29634" stroke-width="0.3"/>
<rect x="59" y="60" width="20" height="7" rx="2.5" stroke="#D29634" stroke-width="0.3"/>
<rect x="59" y="67" width="20" height="7" rx="2.5" stroke="#D29634" stroke-width="0.3"/>
<rect x="59" y="74" width="20" height="7" rx="2.5" stroke="#D29634" stroke-width="0.3"/>
</g>
</svg>
